<svg data-v-0dd9719b="" version="1.0" xmlns="http://www.w3.org/2000/svg" xmlns:xlink="http://www.w3.org/1999/xlink" width="100%" height="100%" viewBox="0 0 340.000000 250.000000" preserveAspectRatio="xMidYMid meet" color-interpolation-filters="sRGB" style="margin: auto;"> <rect data-v-0dd9719b="" x="0" y="0" width="100%" height="100%" fill="#ffffff" fill-opacity="1" class="background"></rect> <rect data-v-0dd9719b="" x="0" y="0" width="100%" height="100%" fill="url(#watermark)" fill-opacity="1" class="watermarklayer"></rect> <g data-v-0dd9719b="" fill="#38b137" class="icon-text-wrapper icon-svg-group iconsvg" transform="translate(63.599998474121094,95)"><g class="iconsvg-imagesvg" transform="translate(0,0)"><g><rect fill="#38b137" fill-opacity="0" stroke-width="2" x="0" y="0" width="60" height="60" class="image-rect"></rect> <svg filter="url(#colors4032293962)" x="0" y="0" width="60" height="60" filtersec="colorsf6402716890" class="image-svg-svg primary" style="overflow: visible;"><svg xmlns="http://www.w3.org/2000/svg" viewBox="0.10000000000000009 0.10000000000000009 107.4 107.4"><path d="M53.8 105.5L2.1 53.8 53.8 2.1l51.7 51.7-51.7 51.7zm43.3-51.7L53.8 10.6 10.6 53.8 53.8 97l43.3-43.2zm-21.7 9.5L91 47.8 59.9 16.7 44.4 32.2c-8.6 8.6-8.6 22.5 0 31.1 8.5 8.6 22.5 8.6 31 0zM32.2 44.4L16.7 59.9 47.8 91l15.5-15.5c8.6-8.6 8.6-22.5 0-31.1-8.6-8.6-22.5-8.6-31.1 0z" fill="none" stroke="#202121" stroke-width="3" stroke-miterlimit="10"></path></svg></svg> <defs><filter id="colors4032293962"><feColorMatrix type="matrix" values="0 0 0 0 0.19921875  0 0 0 0 0.19921875  0 0 0 0 0.19921875  0 0 0 1 0" class="icon-fecolormatrix"></feColorMatrix></filter> <filter id="colorsf6402716890"><feColorMatrix type="matrix" values="0 0 0 0 0.99609375  0 0 0 0 0.99609375  0 0 0 0 0.99609375  0 0 0 1 0" class="icon-fecolormatrix"></feColorMatrix></filter> <filter id="colorsb4001830381"><feColorMatrix type="matrix" values="0 0 0 0 0  0 0 0 0 0  0 0 0 0 0  0 0 0 1 0" class="icon-fecolormatrix"></feColorMatrix></filter></defs></g></g> <g transform="translate(67,6.145000457763672)"><g data-gra="path-name" fill-rule="" class="tp-name iconsvg-namesvg"><g transform="scale(1)"><g><path d="M38.29-47.71L5-47.71 2.34-21.39 28.93-21.39 27.43-6.7 0-6.7 0.91 0 33.41 0 36.34-28.08 9.88-28.08 11.18-41.02 30.88-41.02 30.48-37.31 37.18-37.31 38.29-47.71ZM38.29 0L41.73-33.15 77.94-33.15 74.36 0 67.6 0 70.4-26.39 62.6-26.39 59.73 0 52.98 0 55.77-26.39 47.91-26.39 45.05 0 38.29 0ZM77.94 0L81.38-33.15 111.61-33.15 108.03 0 77.94 0ZM87.56-26.39L85.41-6.7 101.98-6.7 104.06-26.39 87.56-26.39ZM116.68-47.71L111.61 0 142.28 0 145.8-33.22 121.94-33.22 123.44-47.71 116.68-47.71ZM136.18-6.7L119.21-6.7 121.23-26.46 138.32-26.46 136.18-6.7Z" transform="translate(0, 47.709999084472656)"></path></g> <!----> <!----> <!----> <!----> <!----> <!----> <!----></g></g> <!----></g></g><defs v-gra="od"></defs></svg>